<svg xmlns="http://www.w3.org/2000/svg" xmlns:xlink="http://www.w3.org/1999/xlink" width="771.504" height="480.559" viewBox="0 0 771.504 480.559">
  <defs>
    <clipPath id="clip-path">
      <rect id="Rectangle_869" data-name="Rectangle 869" width="551.185" height="399.262" fill="none"/>
    </clipPath>
  </defs>
  <g id="Group_3704" data-name="Group 3704" transform="translate(0.984)">
    <g id="Group_3642" data-name="Group 3642">
      <g id="Group_3630" data-name="Group 3630" transform="translate(0 108.778)">
        <g id="Group_3614" data-name="Group 3614" transform="translate(83.849)">
          <g id="Group_3613" data-name="Group 3613">
            <line id="Line_8" data-name="Line 8" x2="599.305" transform="translate(0 39.286)" fill="none" stroke="#ded8d5" stroke-miterlimit="10" stroke-width="1.968"/>
            <rect id="Rectangle_855" data-name="Rectangle 855" width="599.305" height="370.796" rx="6.521" fill="none" stroke="#ded8d5" stroke-miterlimit="10" stroke-width="1.968"/>
            <g id="Group_3612" data-name="Group 3612" transform="translate(28.532 14.562)">
              <path id="Path_3699" data-name="Path 3699" d="M160.715,143.558a5.482,5.482,0,1,1-5.482-5.481A5.482,5.482,0,0,1,160.715,143.558Z" transform="translate(-149.751 -138.077)" fill="#ffb1a5"/>
              <path id="Path_3700" data-name="Path 3700" d="M178.467,143.558a5.482,5.482,0,1,1-5.481-5.481A5.482,5.482,0,0,1,178.467,143.558Z" transform="translate(-146.198 -138.077)" fill="#ead254"/>
              <path id="Path_3701" data-name="Path 3701" d="M196.22,143.558a5.482,5.482,0,1,1-5.482-5.481A5.482,5.482,0,0,1,196.22,143.558Z" transform="translate(-142.646 -138.077)" fill="#00857b"/>
            </g>
          </g>
        </g>
        <g id="Group_3623" data-name="Group 3623" transform="translate(612.97 26.967)">
          <g id="Group_3617" data-name="Group 3617">
            <g id="Group_3616" data-name="Group 3616">
              <g id="Group_3615" data-name="Group 3615">
                <rect id="Rectangle_856" data-name="Rectangle 856" width="155.229" height="144.643" rx="5.991" fill="#ededed"/>
                <rect id="Rectangle_857" data-name="Rectangle 857" width="155.229" height="144.643" rx="5.991" fill="none" stroke="#ded8d5" stroke-miterlimit="10" stroke-width="1.968"/>
              </g>
            </g>
          </g>
          <g id="Group_3622" data-name="Group 3622" transform="translate(34.015 32.568)">
            <g id="Group_3620" data-name="Group 3620">
              <g id="Group_3619" data-name="Group 3619">
                <g id="Group_3618" data-name="Group 3618">
                  <rect id="Rectangle_858" data-name="Rectangle 858" width="87.659" height="74.449" rx="6.022" transform="translate(87.659 74.449) rotate(180)" fill="#c98bd2"/>
                </g>
              </g>
            </g>
            <g id="Group_3621" data-name="Group 3621" transform="translate(23.373 22.474)">
              <path id="Path_3702" data-name="Path 3702" d="M655.137,221.405H614.683v-27.13h40.453v27.13Z" transform="translate(-614.683 -194.276)" fill="none" stroke="#fff" stroke-linecap="round" stroke-linejoin="round" stroke-width="1.647"/>
              <path id="Path_3703" data-name="Path 3703" d="M614.683,194.276l20.227,15.94,20.227-15.94" transform="translate(-614.683 -194.276)" fill="none" stroke="#fff" stroke-linecap="round" stroke-linejoin="round" stroke-width="1.647"/>
            </g>
          </g>
        </g>
        <g id="Group_3629" data-name="Group 3629" transform="translate(0 149.86)">
          <g id="Group_3626" data-name="Group 3626">
            <g id="Group_3625" data-name="Group 3625">
              <g id="Group_3624" data-name="Group 3624">
                <rect id="Rectangle_859" data-name="Rectangle 859" width="148.039" height="130.827" rx="5.713" fill="#ededed"/>
                <rect id="Rectangle_860" data-name="Rectangle 860" width="148.039" height="130.827" rx="5.713" fill="none" stroke="#ded8d5" stroke-miterlimit="10" stroke-width="1.968"/>
              </g>
            </g>
          </g>
          <g id="Group_3628" data-name="Group 3628" transform="translate(30.87 22.406)">
            <rect id="Rectangle_861" data-name="Rectangle 861" width="85.602" height="83.216" rx="6.639" fill="#ffb1a5"/>
            <g id="Group_3627" data-name="Group 3627" transform="translate(19.16 18.222)">
              <path id="Path_3704" data-name="Path 3704" d="M104.846,291.717a24.2,24.2,0,1,0,34.228,0A24.3,24.3,0,0,0,104.846,291.717Zm34.172,3.485h-7.713a49.076,49.076,0,0,0-3-7.268A21.862,21.862,0,0,1,139.019,295.2Zm-25.946,12.214a39.16,39.16,0,0,1,1.146-9.384H129.7a39.1,39.1,0,0,1,1.146,9.384Zm17.679,2.83a46.112,46.112,0,0,1-1.662,9.384H114.831a46.019,46.019,0,0,1-1.663-9.384ZM121.96,287a21.986,21.986,0,0,1,3.419.265,44.471,44.471,0,0,1,3.509,7.94H115.032a44.471,44.471,0,0,1,3.509-7.94A22,22,0,0,1,121.96,287Zm-6.346.937a48.938,48.938,0,0,0-3,7.268H104.9A21.846,21.846,0,0,1,115.614,287.934Zm-12.635,10.1h8.834a42.11,42.11,0,0,0-1.237,9.384h-10.4A21.72,21.72,0,0,1,102.979,298.032Zm0,21.6a21.7,21.7,0,0,1-2.807-9.384h10.447a45.6,45.6,0,0,0,1.474,9.384Zm1.924,2.83h8.025a58.72,58.72,0,0,0,2.984,7.357A21.847,21.847,0,0,1,104.9,322.459Zm17.057,8.206a22.044,22.044,0,0,1-2.86-.186,65.149,65.149,0,0,1-3.384-8.02h12.49a65.519,65.519,0,0,1-3.384,8.02A22.076,22.076,0,0,1,121.96,330.665Zm6.05-.85a58.637,58.637,0,0,0,2.982-7.357h8.026A21.847,21.847,0,0,1,128.01,329.816Zm12.931-10.187h-9.114a45.41,45.41,0,0,0,1.474-9.384h10.447A21.7,21.7,0,0,1,140.941,319.629Zm2.807-12.214h-10.4a42.11,42.11,0,0,0-1.237-9.384h8.834A21.719,21.719,0,0,1,143.749,307.415Z" transform="translate(-97.797 -284.667)" fill="#fff"/>
            </g>
          </g>
        </g>
      </g>
      <g id="Group_3641" data-name="Group 3641" transform="translate(6.933)">
        <path id="Path_3705" data-name="Path 3705" d="M188.131,98.95H66.439A4.553,4.553,0,0,1,61.887,94.4h0a4.553,4.553,0,0,1,4.552-4.552H188.131a4.552,4.552,0,0,1,4.552,4.552h0A4.552,4.552,0,0,1,188.131,98.95Z" transform="translate(-61.887 -24.389)" fill="#c98bd2"/>
        <path id="Path_3706" data-name="Path 3706" d="M704.958,346.634H645.894a4.552,4.552,0,0,1-4.552-4.552h0a4.552,4.552,0,0,1,4.552-4.552h59.064a4.553,4.553,0,0,1,4.552,4.552h0A4.553,4.553,0,0,1,704.958,346.634Z" transform="translate(54.077 25.179)" fill="#56dfed"/>
        <rect id="Rectangle_862" data-name="Rectangle 862" width="14.085" height="13.643" rx="2.861" transform="translate(707.016 410.829)" fill="#c98bd2"/>
        <rect id="Rectangle_863" data-name="Rectangle 863" width="14.085" height="13.643" rx="2.861" transform="translate(22.888 442.365)" fill="#ffb1a5"/>
        <g id="Group_3633" data-name="Group 3633" transform="translate(462.2 33.304)">
          <g id="Group_3632" data-name="Group 3632">
            <rect id="Rectangle_864" data-name="Rectangle 864" width="127.342" height="36.555" rx="3.012" fill="#ffb1a5"/>
            <g id="Group_3631" data-name="Group 3631" transform="translate(17.345 13.025)">
              <line id="Line_9" data-name="Line 9" x2="85.422" fill="none" stroke="#fff" stroke-miterlimit="10" stroke-width="1.18"/>
              <line id="Line_10" data-name="Line 10" x2="34.794" transform="translate(0 8.768)" fill="none" stroke="#fff" stroke-miterlimit="10" stroke-width="1.18"/>
            </g>
          </g>
          <path id="Path_3707" data-name="Path 3707" d="M458.571,90.068v14.246l17.917-14.246Z" transform="translate(-444.7 -57.648)" fill="#ffb1a5"/>
        </g>
        <g id="Group_3640" data-name="Group 3640" transform="translate(222.455)">
          <g id="Group_3638" data-name="Group 3638">
            <g id="Group_3637" data-name="Group 3637">
              <g id="Group_3636" data-name="Group 3636">
                <g id="Group_3635" data-name="Group 3635">
                  <g id="Group_3634" data-name="Group 3634">
                    <path id="Rectangle_865" data-name="Rectangle 865" d="M6.46,0h63.2a6.46,6.46,0,0,1,6.46,6.46V65.574a6.46,6.46,0,0,1-6.46,6.46H8.521A8.521,8.521,0,0,1,0,63.514V6.46A6.46,6.46,0,0,1,6.46,0Z" fill="#56dfed"/>
                  </g>
                </g>
              </g>
            </g>
          </g>
          <g id="Group_3639" data-name="Group 3639" transform="translate(21.744 15.957)">
            <path id="Path_3708" data-name="Path 3708" d="M299.446,73.987l-4.335-4.335a3.8,3.8,0,0,0-2.787-1.315,4.015,4.015,0,0,0-2.787,1.237l-2.476,2.477-.464-.232a7.138,7.138,0,0,1-.774-.388,26.687,26.687,0,0,1-6.424-5.882,14.053,14.053,0,0,1-2.013-3.174c.619-.541,1.161-1.161,1.7-1.7l.7-.7a3.775,3.775,0,0,0,0-5.727l-2.167-2.167a7.026,7.026,0,0,1-.7-.774l-1.471-1.471a4.012,4.012,0,0,0-2.786-1.237,3.834,3.834,0,0,0-2.787,1.237l-2.71,2.71a6.227,6.227,0,0,0-1.78,3.792,14.08,14.08,0,0,0,1.007,5.882,31.656,31.656,0,0,0,6.037,10.14,37.628,37.628,0,0,0,12.384,9.675,20.556,20.556,0,0,0,6.967,2.089h.541a6.145,6.145,0,0,0,4.644-2.013l.077-.077a11.912,11.912,0,0,1,1.393-1.393l1.007-1.006A3.884,3.884,0,0,0,299.446,73.987Zm-1.781,4.024-.929.929c-.541.464-1.006,1.007-1.548,1.548A3.679,3.679,0,0,1,292.4,81.65h-.388a16.3,16.3,0,0,1-6.037-1.858,35.232,35.232,0,0,1-11.533-9.056,33.571,33.571,0,0,1-5.65-9.366,9.59,9.59,0,0,1-.929-4.8,3.262,3.262,0,0,1,1.084-2.244l2.632-2.632a1.624,1.624,0,0,1,1.084-.541,1.475,1.475,0,0,1,1.083.541l1.393,1.393a7.242,7.242,0,0,0,.774.774l2.167,2.167a1.812,1.812,0,0,1,.542,1.084,1.622,1.622,0,0,1-.542,1.084l-.7.7-1.936,1.936-.077.077a1.694,1.694,0,0,0-.464,1.935v.078a17.864,17.864,0,0,0,2.554,4.18,28.738,28.738,0,0,0,7.044,6.424,6.448,6.448,0,0,0,1.007.541,7.246,7.246,0,0,1,.774.388l.077.077a1.777,1.777,0,0,0,2.167-.386l2.709-2.71a1.279,1.279,0,0,1,2.091,0l4.334,4.335A1.465,1.465,0,0,1,297.665,78.011Z" transform="translate(-265.365 -48.6)" fill="#fff"/>
          </g>
        </g>
      </g>
    </g>
    <g id="Group_3703" data-name="Group 3703" transform="translate(139.053 79.343)">
      <g id="Group_3702" data-name="Group 3702" clip-path="url(#clip-path)">
        <g id="Group_3701" data-name="Group 3701" transform="translate(3.603 4.845)">
          <g id="Group_3663" data-name="Group 3663" transform="translate(308.752 15.253)">
            <g id="Group_3643" data-name="Group 3643" transform="translate(6.722 239.496)">
              <path id="Path_3709" data-name="Path 3709" d="M530.4,323.555l-43.806-5.833.342,4.349-37.455,4.988s-24.142,60.569-2.865,193.778h30.468l10.966-135.073h3.894l10.62,135.073h30.468C554.3,387.628,530.4,323.555,530.4,323.555Z" transform="translate(-437.845 -317.722)" fill="#8e716c"/>
              <line id="Line_11" data-name="Line 11" x2="31.787" transform="translate(36.27 68.043)" fill="none" stroke="#282828" stroke-linecap="round" stroke-linejoin="round" stroke-width="1.233"/>
            </g>
            <g id="Group_3652" data-name="Group 3652" transform="translate(0 121.882)">
              <g id="Group_3649" data-name="Group 3649" transform="translate(97.23 36.536)">
                <g id="Group_3645" data-name="Group 3645" transform="translate(0 17.106)">
                  <g id="Group_3644" data-name="Group 3644">
                    <path id="Path_3710" data-name="Path 3710" d="M540.886,270.326c-3.748-5.983-24.8-5.77-25.912-5.9-5.691-.667,3.65,44.621,15.489,84.208a13.292,13.292,0,0,0,17.914,8.451l.236-.1a13.31,13.31,0,0,0,7.892-14.727C550.874,312.386,545.22,277.243,540.886,270.326Z" transform="translate(-513.261 -264.418)" fill="#ffb1a5"/>
                  </g>
                  <path id="Path_3711" data-name="Path 3711" d="M545.363,284.532l-26.879,10.43-2.52-12.753,27.833-6.943Z" transform="translate(-512.72 -262.247)" fill="#f3978e"/>
                  <path id="Path_3712" data-name="Path 3712" d="M546.716,306.133s-12.733,17.1-12.126,16.315,9.986-27.635,9.986-27.635Z" transform="translate(-508.996 -258.335)" fill="#f3978e"/>
                </g>
                <g id="Group_3648" data-name="Group 3648" transform="translate(16.629)">
                  <path id="Path_3713" data-name="Path 3713" d="M566.413,285.092l-36.5,47.29a13.421,13.421,0,0,0,3.317,19.456h0a13.421,13.421,0,0,0,19.106-4.862l30.38-56.051Z" transform="translate(-527.117 -243.174)" fill="#ffb1a5"/>
                  <g id="Group_3646" data-name="Group 3646" transform="translate(38.311 21.966)">
                    <path id="Path_3714" data-name="Path 3714" d="M569.471,300.111a15.056,15.056,0,1,1,18.955-9.7A15.056,15.056,0,0,1,569.471,300.111Z" transform="translate(-559.039 -268.015)" fill="#ffb1a5"/>
                    <path id="Path_3715" data-name="Path 3715" d="M584.955,277.187s4.12-4.278-3.189-7.276-16.347-2.31-22.116,11.7Z" transform="translate(-558.917 -268.467)" fill="#ffb1a5"/>
                  </g>
                  <g id="Group_3647" data-name="Group 3647" transform="translate(47.75)">
                    <path id="Path_3716" data-name="Path 3716" d="M590.831,250.854l15.282,6.626a1.576,1.576,0,0,1,.691,2.251l-20.1,37.552a1.922,1.922,0,0,1-2.387.917l-15.282-6.626a1.575,1.575,0,0,1-.691-2.251l20.1-37.552A1.922,1.922,0,0,1,590.831,250.854Z" transform="translate(-566.661 -250.053)" fill="#372f5f"/>
                    <path id="Path_3717" data-name="Path 3717" d="M589.615,250.3l15.282,6.626a1.576,1.576,0,0,1,.691,2.251l-20.1,37.552a1.922,1.922,0,0,1-2.387.917l-15.282-6.626a1.574,1.574,0,0,1-.691-2.251l20.1-37.552A1.922,1.922,0,0,1,589.615,250.3Z" transform="translate(-566.905 -250.164)" fill="#261b43"/>
                    <path id="Path_3718" data-name="Path 3718" d="M587.124,253.461l13.428,5.822-16.385,30.6-13.428-5.822Z" transform="translate(-566.137 -249.505)" fill="#e6e6e6"/>
                    <path id="Path_3719" data-name="Path 3719" d="M600.551,259.283l-29.813,24.783,16.385-30.605Z" transform="translate(-566.137 -249.505)" fill="#fff"/>
                  </g>
                  <path id="Path_3720" data-name="Path 3720" d="M576.466,268.631a24.383,24.383,0,0,1,6.475,2.4,3.458,3.458,0,0,1,1.671,3.838h0a3.434,3.434,0,0,1-2.9,2.577l-7.945,1s-4.145,7.144-9.561,7.947l4.969-12.545Z" transform="translate(-519.695 -246.469)" fill="#ffb1a5"/>
                </g>
              </g>
              <g id="Group_3651" data-name="Group 3651">
                <g id="Group_3650" data-name="Group 3650">
                  <path id="Path_3721" data-name="Path 3721" d="M501.411,219.721c-.877,0,56.341,7.917,65.782,73.152l-29.691,4.55-5.986,49.248H448.688l-16.444-90.994s18.351-26.3,52.424-35.957Z" transform="translate(-432.244 -219.721)" fill="#56dfed"/>
                  <line id="Line_12" data-name="Line 12" y1="28.483" x2="2.577" transform="translate(105.259 49.218)" fill="none" stroke="#282828" stroke-linecap="round" stroke-linejoin="round" stroke-width="1.233"/>
                </g>
              </g>
            </g>
            <g id="Group_3662" data-name="Group 3662" transform="translate(25.79)">
              <path id="Path_3722" data-name="Path 3722" d="M500.026,224.277v-22.66H473.472v22.926a51.574,51.574,0,0,0-7.134,2.893l20.711,12.336,21.173-12.337A34.545,34.545,0,0,0,500.026,224.277Z" transform="translate(-451.211 -101.462)" fill="#ffb1a5"/>
              <path id="Path_3723" data-name="Path 3723" d="M472.077,205.089s4.769,12.663,17.5,11.569c11.7-1,9.839-18.554,9.839-18.554Z" transform="translate(-450.062 -102.165)" fill="#282828"/>
              <g id="Group_3655" data-name="Group 3655" transform="translate(0 70.178)">
                <path id="Path_3724" data-name="Path 3724" d="M464.167,192.543C460,196.319,450.7,182,454.719,177.978s7.089,2.287,7.089,2.287l1.8,4.274,1.354,5.789.323,1.517Z" transform="translate(-453.733 -176.639)" fill="#f3978e"/>
                <g id="Group_3654" data-name="Group 3654" transform="translate(2.93 6.205)">
                  <g id="Group_3653" data-name="Group 3653">
                    <path id="Path_3725" data-name="Path 3725" d="M456.175,182.017s3.15-1.417,5.949,3.15" transform="translate(-456.175 -181.809)" fill="none" stroke="#282828" stroke-linecap="round" stroke-linejoin="round" stroke-width="0.993"/>
                  </g>
                </g>
              </g>
              <g id="Group_3658" data-name="Group 3658" transform="translate(58.604 70.36)">
                <path id="Path_3726" data-name="Path 3726" d="M503.616,192.078c3.827,4.114,14.312-9.367,10.645-13.713S507,180.045,507,180.045l-2.149,4.107-1.84,5.654-.449,1.483Z" transform="translate(-502.565 -176.791)" fill="#f3978e"/>
                <g id="Group_3657" data-name="Group 3657" transform="translate(3.136 6.143)">
                  <g id="Group_3656" data-name="Group 3656">
                    <path id="Path_3727" data-name="Path 3727" d="M511.373,182.231s-3.02-1.679-6.2,2.635" transform="translate(-505.178 -181.909)" fill="none" stroke="#282828" stroke-linecap="round" stroke-linejoin="round" stroke-width="0.993"/>
                  </g>
                </g>
              </g>
              <g id="Group_3659" data-name="Group 3659" transform="translate(3.133 26.008)">
                <path id="Path_3728" data-name="Path 3728" d="M456.344,171.685c0,18.955,14.452,27.943,32.28,27.943S520.9,190.64,520.9,171.685s-14.452-31.851-32.279-31.851S456.344,152.729,456.344,171.685Z" transform="translate(-456.344 -139.834)" fill="#282828"/>
              </g>
              <path id="Path_3729" data-name="Path 3729" d="M460,172.277a129.588,129.588,0,0,0,3.286,28.805c1.607,6.978,6.128,11.854,12.517,15.778l1.164.715a21.968,21.968,0,0,0,22.361.247h0c6.922-4.036,11.771-9.357,13.261-16.845a189.431,189.431,0,0,0,3.01-28.7s2.581-29.374-27.4-28.8S460,172.277,460,172.277Z" transform="translate(-452.482 -113.1)" fill="#ffb1a5"/>
              <g id="Group_3661" data-name="Group 3661" transform="translate(6.901 56.985)">
                <path id="Path_3730" data-name="Path 3730" d="M481.648,181.441v4.065a1.849,1.849,0,0,0,.131.683,1.812,1.812,0,0,0,2.159,1l1.865-.494" transform="translate(-455.048 -162.485)" fill="none" stroke="#282828" stroke-linecap="round" stroke-linejoin="round" stroke-width="1.232"/>
                <path id="Path_3731" data-name="Path 3731" d="M480.16,168.645l-14.9,3.494s.677-3.792,6.773-5.171S480.16,168.645,480.16,168.645Z" transform="translate(-458.328 -165.453)" fill="#282828"/>
                <path id="Path_3732" data-name="Path 3732" d="M488.7,168.645l14.39,3.494s-.654-3.792-6.541-5.171S488.7,168.645,488.7,168.645Z" transform="translate(-453.637 -165.453)" fill="#282828"/>
                <ellipse id="Ellipse_35" data-name="Ellipse 35" cx="2.513" cy="2.506" rx="2.513" ry="2.506" transform="translate(13.658 11.633)" fill="#282828"/>
                <path id="Path_3733" data-name="Path 3733" d="M495.742,177.846a2.513,2.513,0,1,1-2.513-2.507A2.509,2.509,0,0,1,495.742,177.846Z" transform="translate(-453.233 -163.706)" fill="#282828"/>
                <path id="Path_3734" data-name="Path 3734" d="M475.052,190.172h19.38S485.842,200.62,475.052,190.172Z" transform="translate(-456.368 -160.737)" fill="#fff"/>
                <g id="Group_3660" data-name="Group 3660">
                  <circle id="Ellipse_36" data-name="Ellipse 36" cx="10.687" cy="10.687" r="10.687" transform="translate(0 15.114) rotate(-45)" fill="none" stroke="#c98bd2" stroke-miterlimit="10" stroke-width="1.342"/>
                  <circle id="Ellipse_37" data-name="Ellipse 37" cx="10.687" cy="10.687" r="10.687" transform="translate(26.254 15.114) rotate(-45)" fill="none" stroke="#c98bd2" stroke-miterlimit="10" stroke-width="1.342"/>
                  <path id="Path_3735" data-name="Path 3735" d="M480.982,178.414s2.531-2.362,4.88,0" transform="translate(-455.181 -163.301)" fill="none" stroke="#c98bd2" stroke-miterlimit="10" stroke-width="1.342"/>
                  <line id="Line_13" data-name="Line 13" x1="3.366" y1="0.085" transform="translate(1.06 15.028)" fill="none" stroke="#c98bd2" stroke-miterlimit="10" stroke-width="1.342"/>
                  <line id="Line_14" data-name="Line 14" y1="0.085" x2="3.387" transform="translate(52.054 15.028)" fill="none" stroke="#c98bd2" stroke-miterlimit="10" stroke-width="1.342"/>
                </g>
              </g>
              <path id="Path_3736" data-name="Path 3736" d="M507.614,181.027s-11.988-16.207-9.223-32.625a23.621,23.621,0,0,1,11.215,16.035C511.924,176,507.614,181.027,507.614,181.027Z" transform="translate(-444.879 -112.111)" fill="#282828"/>
              <path id="Path_3737" data-name="Path 3737" d="M460.261,182.309s13.926-18.408,11.161-34.826c0,0-9.659,5.581-11.976,17.138S460.261,182.309,460.261,182.309Z" transform="translate(-452.761 -112.295)" fill="#282828"/>
              <path id="Path_3738" data-name="Path 3738" d="M514.759,156.055s-15.394,16.852-57.51,13.967c0,0,6.449-24.729,26.86-27.363C484.109,142.659,507.676,139.845,514.759,156.055Z" transform="translate(-453.03 -113.298)" fill="#282828"/>
              <circle id="Ellipse_38" data-name="Ellipse 38" cx="20.109" cy="20.109" r="20.109" transform="translate(37.592 39.704) rotate(-80.831)" fill="#282828"/>
            </g>
          </g>
          <g id="Group_3677" data-name="Group 3677" transform="translate(28.246 37.711)">
            <path id="Path_3739" data-name="Path 3739" d="M315.128,324.1l-37.455-4.988.342-4.35L234.21,320.6S210.3,384.67,231.578,517.879h30.468l10.62-135.073h3.894l10.966,135.073h30.468C339.27,384.67,315.128,324.1,315.128,324.1Z" transform="translate(-193.662 -101.276)" fill="#282828"/>
            <g id="Group_3672" data-name="Group 3672" transform="translate(21.78)">
              <path id="Path_3740" data-name="Path 3740" d="M313.36,177.092c-5.069-5.965-9.128-12.922-12.577-22.684-3.7-10.481-15.828-6.22-15.828-6.22s-10.1-13-25.308-8.472-20.487,15.347-20.8,28.21S228.421,182.8,220.63,197.683c-13.753,26.271,9.4,48.4,51.556,42.26l.058-.409a44.231,44.231,0,0,0,15.448,1.443C338.332,237.97,333.445,200.721,313.36,177.092Z" transform="translate(-216.662 -136.499)" fill="#282828"/>
              <g id="Group_3666" data-name="Group 3666" transform="translate(79.005 44.17)">
                <path id="Path_3741" data-name="Path 3741" d="M283.607,189.585c4.162,3.774,13.469-10.544,9.447-14.565s-7.09,2.287-7.09,2.287l-1.8,4.274-1.354,5.789-.323,1.516Z" transform="translate(-282.492 -173.68)" fill="#f3978e"/>
                <g id="Group_3665" data-name="Group 3665" transform="translate(2.669 6.205)">
                  <g id="Group_3664" data-name="Group 3664">
                    <path id="Path_3742" data-name="Path 3742" d="M290.665,179.059s-3.15-1.417-5.949,3.149" transform="translate(-284.716 -178.851)" fill="none" stroke="#282828" stroke-linecap="round" stroke-linejoin="round" stroke-width="0.993"/>
                  </g>
                </g>
              </g>
              <g id="Group_3669" data-name="Group 3669" transform="translate(19.487 44.351)">
                <path id="Path_3743" data-name="Path 3743" d="M244.31,189.12c-3.827,4.113-14.312-9.367-10.645-13.714s7.258,1.68,7.258,1.68l2.149,4.107,1.84,5.654.449,1.483Z" transform="translate(-232.899 -173.832)" fill="#f3978e"/>
                <g id="Group_3668" data-name="Group 3668" transform="translate(3.131 6.144)">
                  <g id="Group_3667" data-name="Group 3667">
                    <path id="Path_3744" data-name="Path 3744" d="M235.508,179.273s3.02-1.679,6.2,2.635" transform="translate(-235.508 -178.951)" fill="none" stroke="#282828" stroke-linecap="round" stroke-linejoin="round" stroke-width="0.993"/>
                  </g>
                </g>
              </g>
              <g id="Group_3670" data-name="Group 3670" transform="translate(22.862)">
                <path id="Path_3745" data-name="Path 3745" d="M300.268,168.726c0,18.955-14.451,27.944-32.279,27.944s-32.279-8.989-32.279-27.944,14.452-31.85,32.279-31.85S300.268,149.771,300.268,168.726Z" transform="translate(-235.711 -136.876)" fill="#282828"/>
              </g>
              <rect id="Rectangle_866" data-name="Rectangle 866" width="26.554" height="34.385" transform="translate(41.739 74.147)" fill="#ffb1a5"/>
              <path id="Path_3746" data-name="Path 3746" d="M248.211,196.872s7.392,14.752,16.485,17.055a12.8,12.8,0,0,0,7.366-.426c3.423-1.213,7.764-6.315,8.5-11.962l.343-3.226S264.725,207.123,248.211,196.872Z" transform="translate(-210.348 -124.869)" fill="#282828"/>
              <path id="Path_3747" data-name="Path 3747" d="M295.129,169.319a129.567,129.567,0,0,1-3.286,28.8c-1.607,6.978-6.128,11.854-12.517,15.779l-1.164.714a21.968,21.968,0,0,1-22.361.248h0c-6.923-4.036-11.771-9.357-13.263-16.845a189.517,189.517,0,0,1-3.009-28.7s-2.581-29.375,27.4-28.8S295.129,169.319,295.129,169.319Z" transform="translate(-212.096 -136.15)" fill="#ffb1a5"/>
              <g id="Group_3671" data-name="Group 3671" transform="translate(34.852 33.401)">
                <path id="Path_3748" data-name="Path 3748" d="M260.938,179.808v2.415a1.842,1.842,0,0,0,.131.682,1.814,1.814,0,0,0,2.159.995l1.865-.493" transform="translate(-242.653 -161.685)" fill="none" stroke="#282828" stroke-linecap="round" stroke-linejoin="round" stroke-width="1.23"/>
                <path id="Path_3749" data-name="Path 3749" d="M266.144,166.907l15.952,3.776s-.725-4.1-7.251-5.589S266.144,166.907,266.144,166.907Z" transform="translate(-241.611 -164.707)" fill="#282828"/>
                <path id="Path_3750" data-name="Path 3750" d="M261.859,166.907,245.7,170.682s.734-4.1,7.344-5.589S261.859,166.907,261.859,166.907Z" transform="translate(-245.702 -164.707)" fill="#282828"/>
                <path id="Path_3751" data-name="Path 3751" d="M255.18,175.207a2.513,2.513,0,1,1-2.513-2.5A2.505,2.505,0,0,1,255.18,175.207Z" transform="translate(-244.811 -163.106)" fill="#282828"/>
                <path id="Path_3752" data-name="Path 3752" d="M275.032,175.207a2.513,2.513,0,1,1-2.513-2.5A2.505,2.505,0,0,1,275.032,175.207Z" transform="translate(-240.838 -163.106)" fill="#282828"/>
                <path id="Path_3753" data-name="Path 3753" d="M252.959,186.7h22.057s-1.557,6.061-11.558,6.061A11.7,11.7,0,0,1,252.959,186.7Z" transform="translate(-244.25 -160.306)" fill="#fff"/>
              </g>
              <path id="Path_3754" data-name="Path 3754" d="M240.287,178.07s11.988-16.208,9.223-32.627A23.625,23.625,0,0,0,238.3,161.479C235.978,173.036,240.287,178.07,240.287,178.07Z" transform="translate(-212.469 -135.162)" fill="#282828"/>
              <path id="Path_3755" data-name="Path 3755" d="M287.787,177.713s-13.926-16.769-11.161-33.188c0,0,9.659,5.581,11.976,17.138S287.787,177.713,287.787,177.713Z" transform="translate(-204.734 -135.345)" fill="#282828"/>
              <path id="Path_3756" data-name="Path 3756" d="M240.679,153.1s13.756,18.489,55.872,15.6c0,0-4.811-26.367-25.222-29C271.329,139.7,247.762,136.887,240.679,153.1Z" transform="translate(-211.855 -136.348)" fill="#282828"/>
            </g>
            <g id="Group_3676" data-name="Group 3676" transform="translate(0 97.33)">
              <g id="Group_3674" data-name="Group 3674" transform="translate(0 53.977)">
                <g id="Group_3673" data-name="Group 3673">
                  <path id="Path_3757" data-name="Path 3757" d="M210.611,415.8c-.612.964,35.053-155.182,24.465-152.822-.966.216-19.512,1.938-22.267,7.542-7.99,16.246-13.721,144.1-13.721,144.1Z" transform="translate(-198.399 -262.952)" fill="#ffb1a5"/>
                  <path id="Path_3758" data-name="Path 3758" d="M199.2,389.867s-5.749,26.672,15.983,29.588a3.054,3.054,0,0,0,3.287-2.019l.062-.181a3.051,3.051,0,0,0-1.691-3.773c-3.543-1.584-9.038-5.588-6.311-14.677,0,0,3.141-.385,4.875,5.475a2.519,2.519,0,0,0,3.542,1.557h0a2.519,2.519,0,0,0,1.363-2.577c-.521-4.1-2.586-13.984-10.507-16.635Z" transform="translate(-198.514 -238.202)" fill="#ffb1a5"/>
                </g>
                <path id="Path_3759" data-name="Path 3759" d="M205.181,304.364s20.55,28.941,20.658,28.381,7.186-40.63,7.186-40.63l-24.936-10.8Z" transform="translate(-197.179 -259.277)" fill="#f3978e"/>
              </g>
              <g id="Group_3675" data-name="Group 3675" transform="translate(4.871)">
                <path id="Path_3760" data-name="Path 3760" d="M262.8,222.662c.877,0-50.787.921-60.228,66.156l29.691,4.548,5.986,49.25h82.828l16.444-90.993s-11.69-19.714-45.764-29.373Z" transform="translate(-202.572 -217.121)" fill="#00857b"/>
                <path id="Path_3761" data-name="Path 3761" d="M231.716,231.4s7.3,9.692,37.217,9.692c29.637,0,37.216-10.2,37.216-10.2s-17.471-9.762-37.745-12.919A134.306,134.306,0,0,0,231.716,231.4Z" transform="translate(-196.74 -217.976)" fill="#ffb1a5"/>
              </g>
            </g>
          </g>
          <g id="Group_3700" data-name="Group 3700">
            <g id="Group_3679" data-name="Group 3679" transform="translate(169.742 355.133)">
              <g id="Group_3678" data-name="Group 3678">
                <path id="Path_3762" data-name="Path 3762" d="M316.414,401.367l.071,130.1h64.361l4.946-130.1Z" transform="translate(-316.414 -401.367)" fill="#005683"/>
                <path id="Path_3763" data-name="Path 3763" d="M444.425,401.367l-.071,130.1H379.992l-4.946-130.1Z" transform="translate(-304.68 -401.367)" fill="#005683"/>
                <rect id="Rectangle_867" data-name="Rectangle 867" width="66.546" height="45.199" transform="translate(38.047)" fill="#005683"/>
              </g>
              <line id="Line_15" data-name="Line 15" x2="45.899" transform="translate(47.342 45.199)" fill="none" stroke="#282828" stroke-linecap="round" stroke-linejoin="round" stroke-width="1.397"/>
            </g>
            <g id="Group_3690" data-name="Group 3690" transform="translate(0 122.294)">
              <g id="Group_3681" data-name="Group 3681" transform="translate(273.528 17.802)">
                <g id="Group_3680" data-name="Group 3680" transform="translate(33.425 101.501)">
                  <path id="Path_3764" data-name="Path 3764" d="M473.938,306.763c3.99,44.085-.218,76.207.946,157.327L436.468,465.7l-5.723-151.842Z" transform="translate(-430.745 -306.763)" fill="#ffb1a5"/>
                  <path id="Path_3765" data-name="Path 3765" d="M434.7,339.155s23.789-2.178,40.052-12.906l-.428-9.441-39.638,5.4Z" transform="translate(-429.957 -304.753)" fill="#f3978e"/>
                </g>
                <path id="Path_3766" data-name="Path 3766" d="M402.894,222.188s75.559,19,89.25,114.91c0,0-36.981,16.032-74.041,9.137l8.337-32.078Z" transform="translate(-402.894 -222.188)" fill="#c98bd2"/>
              </g>
              <g id="Group_3688" data-name="Group 3688">
                <g id="Group_3685" data-name="Group 3685">
                  <path id="Path_3767" data-name="Path 3767" d="M218.657,255.417l56.259,66.44L257.7,370.34s-42.76-59.451-61.974-105.4Z" transform="translate(-170.825 -197.736)" fill="#ffb1a5"/>
                  <g id="Group_3684" data-name="Group 3684">
                    <g id="Group_3683" data-name="Group 3683">
                      <g id="Group_3682" data-name="Group 3682">
                        <path id="Path_3768" data-name="Path 3768" d="M223.18,263.945s-19.755,11.161-24.78,7.124c-8.781-7.056-16.037-32.882-16.037-32.882s36.942-13.927,36.6-13.384S223.18,263.945,223.18,263.945Z" transform="translate(-173.5 -203.866)" fill="#ffb1a5"/>
                        <path id="Path_3769" data-name="Path 3769" d="M217.489,263.428c-.349-1.99,7.326-23.444,9.957-31.49a3.549,3.549,0,0,0-2.809-4.472h0a4.1,4.1,0,0,0-4.57,1.873L210.8,245.176Z" transform="translate(-167.809 -203.349)" fill="#ffb1a5"/>
                        <path id="Path_3770" data-name="Path 3770" d="M218.113,243.9l-6.362-31.652a3.984,3.984,0,0,0-4.6-3.159h0a3.431,3.431,0,0,0-2.817,3.806l2.772,23.568Z" transform="translate(-169.109 -207.019)" fill="#ffb1a5"/>
                        <path id="Path_3771" data-name="Path 3771" d="M207.92,232.565l-8.64-22.6a3.965,3.965,0,0,0-4.909-2.417h0a3.416,3.416,0,0,0-2.259,4.054l6.411,26.117Z" transform="translate(-171.567 -207.354)" fill="#ffb1a5"/>
                        <path id="Path_3772" data-name="Path 3772" d="M200.658,238.028l-10.931-22.208a4.345,4.345,0,0,0-5.548-2.128h0a3.786,3.786,0,0,0-1.953,5l8.714,20.966Z" transform="translate(-173.59 -206.153)" fill="#ffb1a5"/>
                        <path id="Path_3773" data-name="Path 3773" d="M183.841,238.954l-8.577-13.606a3.072,3.072,0,0,1,1.5-4.1h0a3.511,3.511,0,0,1,4.287,1.247l11.279,15.647Z" transform="translate(-174.978 -204.633)" fill="#ffb1a5"/>
                      </g>
                    </g>
                    <path id="Path_3774" data-name="Path 3774" d="M216.739,236.111s-12.881-1.351-14.2,15.815" transform="translate(-169.463 -201.604)" fill="none" stroke="#282828" stroke-linecap="round" stroke-linejoin="round" stroke-width="1.532"/>
                  </g>
                </g>
                <g id="Group_3687" data-name="Group 3687" transform="translate(75.465 16.14)">
                  <g id="Group_3686" data-name="Group 3686" transform="translate(0 38.739)">
                    <path id="Path_3775" data-name="Path 3775" d="M237.859,348.132s10.582,36.619,31.667,31.75,53.949-49.9,53.949-49.9l-7.356-76.9-59.182,72.839Z" transform="translate(-237.859 -253.082)" fill="#ffb1a5"/>
                    <path id="Path_3776" data-name="Path 3776" d="M269.051,296.024s19.981,30.139,37.026,40.766l11.155-14.082-43.038-33.293Z" transform="translate(-231.617 -245.811)" fill="#f3978e"/>
                  </g>
                  <path id="Path_3777" data-name="Path 3777" d="M356.888,220.8s-58.662,13.222-89.923,81.4c0,0,18.888,28.46,49.168,41.109l20.272-24.835Z" transform="translate(-232.034 -220.803)" fill="#c98bd2"/>
                </g>
              </g>
              <g id="Group_3689" data-name="Group 3689" transform="translate(162.097 10.836)">
                <path id="Path_3778" data-name="Path 3778" d="M348.117,221.476A146.909,146.909,0,0,0,310.8,248.819l4.521,199.293H459.723l-.468-198.264s-18.2-17.813-37.93-26.5C404.569,215.974,364.407,213.121,348.117,221.476Z" transform="translate(-309.894 -216.383)" fill="#c98bd2"/>
                <path id="Rectangle_868" data-name="Rectangle 868" d="M0,0H40.172a0,0,0,0,1,0,0V23.435A16.736,16.736,0,0,1,23.435,40.172h-6.7A16.736,16.736,0,0,1,0,23.435V0A0,0,0,0,1,0,0Z" transform="translate(86.469 62.032)" fill="none" stroke="#282828" stroke-linecap="round" stroke-linejoin="round" stroke-width="1.397"/>
                <line id="Line_16" data-name="Line 16" y1="65.194" x2="1.874" transform="translate(149.594 66.558)" fill="none" stroke="#282828" stroke-linecap="round" stroke-linejoin="round" stroke-width="1.397"/>
                <line id="Line_17" data-name="Line 17" x1="3.12" y1="56.513" transform="translate(0 64.374)" fill="none" stroke="#282828" stroke-linecap="round" stroke-linejoin="round" stroke-width="1.397"/>
              </g>
            </g>
            <g id="Group_3699" data-name="Group 3699" transform="translate(188.923)">
              <path id="Path_3779" data-name="Path 3779" d="M344.421,168.754l-6.02-29.781c-.338-2.425-1.279-6.169-.127-9.686,1.907-5.819,8.914-16.995,20.891-11.878l2.59,11.79s-12.438,2.511-17.428,18.782Z" transform="translate(-331.332 -103.322)" fill="#282828"/>
              <path id="Path_3780" data-name="Path 3780" d="M357.842,122.313c-.217,3.912-3.671,21.033-15.814,27.272C342.028,149.585,331.393,126.775,357.842,122.313Z" transform="translate(-330.893 -102.079)" fill="#282828"/>
              <path id="Path_3781" data-name="Path 3781" d="M400.434,224.491h0v-50.57H353.816v50.57l-13.877,6.326s3.255,20.959,37.676,21.423,37.878-20.393,37.878-20.393Z" transform="translate(-330.888 -91.751)" fill="#ffb1a5"/>
              <path id="Path_3782" data-name="Path 3782" d="M355.588,119.54s8.556-22.571,34.938-10.572c15.968,7.262,20.441,17,22.344,23.9a27.755,27.755,0,0,1,.712,8.048L407.2,170.885l-24.915-41.467-24.108,1.912Z" transform="translate(-327.756 -105.453)" fill="#282828"/>
              <g id="Group_3693" data-name="Group 3693" transform="translate(76.677 62.211)">
                <path id="Path_3783" data-name="Path 3783" d="M399.055,160.511s3.143-5,9.625-2.541,3.55,18.2-6.173,20.208a7.691,7.691,0,0,1-6.219-1.626S398.679,164.924,399.055,160.511Z" transform="translate(-396.288 -157.291)" fill="#f3978e"/>
                <g id="Group_3692" data-name="Group 3692" transform="translate(1.823 6.058)">
                  <g id="Group_3691" data-name="Group 3691">
                    <path id="Path_3784" data-name="Path 3784" d="M407.091,162.514s-5.431-1.812-9.284,6.184" transform="translate(-397.807 -162.338)" fill="none" stroke="#282828" stroke-linecap="round" stroke-linejoin="round" stroke-width="1.397"/>
                  </g>
                </g>
              </g>
              <g id="Group_3696" data-name="Group 3696" transform="translate(0 62.211)">
                <path id="Path_3785" data-name="Path 3785" d="M345.486,160.511s-3.143-5-9.625-2.541-3.55,18.2,6.173,20.208a7.691,7.691,0,0,0,6.219-1.626S345.861,164.924,345.486,160.511Z" transform="translate(-332.397 -157.291)" fill="#f3978e"/>
                <g id="Group_3695" data-name="Group 3695" transform="translate(4.749 6.058)">
                  <g id="Group_3694" data-name="Group 3694">
                    <path id="Path_3786" data-name="Path 3786" d="M336.354,162.514s5.431-1.812,9.284,6.184" transform="translate(-336.354 -162.338)" fill="none" stroke="#282828" stroke-linecap="round" stroke-linejoin="round" stroke-width="1.397"/>
                  </g>
                </g>
              </g>
              <path id="Path_3787" data-name="Path 3787" d="M410.433,153.15c0,9.491-.929,29.345-6.763,41.131-5.479,11.065-14.538,17.02-26.417,17.374s-20.726-4.223-27.818-18.584-6.753-39.745-6.753-39.745,0-33.9,33.507-33.9C411.481,119.424,410.433,153.15,410.433,153.15Z" transform="translate(-330.339 -102.657)" fill="#ffb1a5"/>
              <path id="Path_3788" data-name="Path 3788" d="M351.794,186.688s3.9,19.808,21.143,22.084c19.84,2.62,25.125-21.581,25.125-21.581s-8.767,10.986-22.632,11A30.336,30.336,0,0,1,351.794,186.688Z" transform="translate(-328.515 -89.196)" fill="#282828"/>
              <g id="Group_3698" data-name="Group 3698" transform="translate(12.754 42.559)">
                <path id="Path_3789" data-name="Path 3789" d="M368.917,159.254V167.1a2.565,2.565,0,0,0,.184.956,2.525,2.525,0,0,0,3.011,1.4l2.6-.693" transform="translate(-337.842 -137.246)" fill="none" stroke="#282828" stroke-linecap="round" stroke-linejoin="round" stroke-width="1.397"/>
                <path id="Path_3790" data-name="Path 3790" d="M361.689,156.641a3.051,3.051,0,1,1-3.051-3.051A3.051,3.051,0,0,1,361.689,156.641Z" transform="translate(-340.51 -138.379)" fill="#282828"/>
                <path id="Path_3791" data-name="Path 3791" d="M385.518,156.641a3.05,3.05,0,1,1-3.05-3.051A3.05,3.05,0,0,1,385.518,156.641Z" transform="translate(-335.741 -138.379)" fill="#282828"/>
                <path id="Path_3792" data-name="Path 3792" d="M375.454,144l20.509,5.3s-.932-5.752-9.323-7.843S375.454,144,375.454,144Z" transform="translate(-336.534 -140.916)" fill="#282828"/>
                <path id="Path_3793" data-name="Path 3793" d="M368.255,144l-20.509,5.3s.932-5.752,9.323-7.843S368.255,144,368.255,144Z" transform="translate(-342.079 -140.916)" fill="#282828"/>
                <path id="Path_3794" data-name="Path 3794" d="M361.436,172.379s3.026,2.319,10.982,2.319a27.81,27.81,0,0,0,11.754-2.319" transform="translate(-339.34 -134.619)" fill="none" stroke="#282828" stroke-linecap="round" stroke-linejoin="round" stroke-width="1.397"/>
                <g id="Group_3697" data-name="Group 3697" transform="translate(0 6.191)">
                  <circle id="Ellipse_39" data-name="Ellipse 39" cx="12.962" cy="12.962" r="12.962" transform="translate(4.346)" fill="none" stroke="#fff" stroke-miterlimit="10" stroke-width="1.951"/>
                  <circle id="Ellipse_40" data-name="Ellipse 40" cx="12.962" cy="12.962" r="12.962" transform="translate(36.188)" fill="none" stroke="#fff" stroke-miterlimit="10" stroke-width="1.951"/>
                  <path id="Path_3795" data-name="Path 3795" d="M368.246,157.087s3.07-2.866,5.919,0" transform="translate(-337.977 -144.125)" fill="none" stroke="#fff" stroke-miterlimit="10" stroke-width="1.951"/>
                  <line id="Line_18" data-name="Line 18" x1="4.346" y1="0.11" transform="translate(0 12.852)" fill="none" stroke="#fff" stroke-miterlimit="10" stroke-width="1.951"/>
                  <line id="Line_19" data-name="Line 19" y1="0.079" x2="4.852" transform="translate(62.112 12.883)" fill="none" stroke="#fff" stroke-miterlimit="10" stroke-width="1.951"/>
                </g>
              </g>
              <path id="Path_3796" data-name="Path 3796" d="M351.794,124.211s6.225,17.684,34.313,17.141c19.086-.368,23.646,13.443,23.646,13.443s-3.322-30.876-4.194-30.584-29.043-7.516-29.043-7.516Z" transform="translate(-328.515 -103.203)" fill="#282828"/>
            </g>
          </g>
        </g>
      </g>
    </g>
  </g>
</svg>
