<svg xmlns="http://www.w3.org/2000/svg" width="36" height="36" viewBox="0 0 36 36">
  <path id="target" d="M47.237,16.619a.6.6,0,0,0-.444-.416l-3.66-.827-.827-3.66a.6.6,0,0,0-1-.29l-4.209,4.21a17.032,17.032,0,1,0,5.783,5.783l4.211-4.211a.6.6,0,0,0,.15-.588Zm-3.108,13.6A15.837,15.837,0,1,1,36.22,16.508l-1.933,1.933a.592.592,0,0,0-.046.06,13.161,13.161,0,1,0,5.765,5.773.589.589,0,0,0,.062-.051L42,22.29a15.784,15.784,0,0,1,2.127,7.93Zm-5.54-6.045a11.932,11.932,0,1,1-4.255-4.259l.629,2.786-.6.6a9.224,9.224,0,1,0,.845.845l.6-.6ZM30.859,30.22a2.578,2.578,0,1,1-1.227-2.186L27.868,29.8a.6.6,0,1,0,.845.844l1.764-1.764A2.548,2.548,0,0,1,30.859,30.22Zm-.367-3.045a3.778,3.778,0,1,0,.844.845L34.359,25a8.023,8.023,0,1,1-.844-.845ZM41.7,20.9l-2.241,2.241-.336-.076-.013,0-2.991-.673-.754-3.339,6.017-6.018.671,2.971a.6.6,0,0,0,.451.451l2.971.671Z" transform="translate(-11.261 -11.25)" fill="#165b6d"/>
</svg>
