<svg xmlns="http://www.w3.org/2000/svg" width="36.456" height="35.95" viewBox="0 0 36.456 35.95">
  <g id="Group_40" data-name="Group 40" transform="translate(-1338 -1767)">
    <g id="Group_39" data-name="Group 39" transform="translate(1338 1767)">
      <g id="valuation" transform="translate(0 0)">
        <path id="Path_246" data-name="Path 246" d="M53.433,75.632a2.391,2.391,0,0,0-2.8-1.887l-8.19,1.563a2.751,2.751,0,0,0-.678-1.127,2.714,2.714,0,0,0-1.92-.793H37.334a2.513,2.513,0,0,1-1.293-.361,2.941,2.941,0,0,1-.988-.984,3.82,3.82,0,0,0-3.27-1.818H26.475V68.468a.68.68,0,0,0-.68-.68H17.7a.68.68,0,0,0-.68.68V83.8a.681.681,0,0,0,.68.68h8.1a.68.68,0,0,0,.68-.68V81.97l10.11,1.48a8.654,8.654,0,0,0,1.255.091,8.8,8.8,0,0,0,3.214-.611l10.956-4.715a2.332,2.332,0,0,0,1.426-2.583ZM25.115,83.125H18.376V69.148h6.739Zm26.376-6.167-.014.006L40.537,81.672a7.382,7.382,0,0,1-3.755.432L26.475,80.6V71.587h5.307A2.468,2.468,0,0,1,33.9,72.762,4.3,4.3,0,0,0,35.344,74.2a3.871,3.871,0,0,0,1.99.553H39.85a1.354,1.354,0,0,1,1.33,1.088.681.681,0,0,0-.055.267,1.36,1.36,0,0,1-1.358,1.36H31.014a.68.68,0,0,0,0,1.36h8.753A2.721,2.721,0,0,0,42.419,76.7l8.46-1.615a1.038,1.038,0,0,1,1.214.784.981.981,0,0,1-.6,1.086Z" transform="translate(-17.016 -48.535)" fill="#165b6d"/>
        <path id="Path_247" data-name="Path 247" d="M34.288,23.139a.638.638,0,0,0,0,.094.475.475,0,0,0,.027.18.627.627,0,0,0,.031.091c0,.009,0,.018.009.026a.519.519,0,0,0,.039.057c.012.018.019.039.033.058L45.3,37.494a.688.688,0,0,0,.126.121c.012.009.026.016.039.025a.68.68,0,0,0,.13.066c.017.007.033.013.051.018a.606.606,0,0,0,.379,0c.017-.005.034-.011.051-.018a.677.677,0,0,0,.131-.066l.039-.024a.691.691,0,0,0,.126-.121L57.242,23.646a.609.609,0,0,0,.032-.056.564.564,0,0,0,.041-.059c0-.009.005-.018.009-.027a.741.741,0,0,0,.03-.089.677.677,0,0,0,.023-.091.645.645,0,0,0,0-.091.687.687,0,0,0,0-.094.617.617,0,0,0-.02-.088.656.656,0,0,0-.03-.092c0-.01-.005-.021-.01-.03s-.024-.035-.036-.053a.557.557,0,0,0-.03-.055l-3.187-4.3a.68.68,0,0,0-.546-.275H38.146a.679.679,0,0,0-.544.275l-3.187,4.3c-.013.017-.019.039-.031.056a.45.45,0,0,0-.035.052c0,.009-.005.02-.01.03a.667.667,0,0,0-.03.093.708.708,0,0,0-.022.087Zm7.928.767H49.45L45.833,34.9Zm-1.432,0,3.193,9.7-7.619-9.7Zm6.9,9.7,3.193-9.7h4.427Zm7.666-11.064H50.891l-.913-2.934h3.2Zm-6.8-2.934.912,2.934H42.2l.912-2.934Zm-10.066,0h3.2l-.912,2.934H36.312Z" transform="translate(-27.573 -18.25)" fill="#165b6d"/>
      </g>
    </g>
  </g>
</svg>
