<svg xmlns="http://www.w3.org/2000/svg" width="37.369" height="37.265" viewBox="0 0 37.369 37.265">
  <g id="Group_38" data-name="Group 38" transform="translate(-984 -1771)">
    <g id="Outline" transform="translate(984 1771)">
      <g id="Group_37" data-name="Group 37" transform="translate(0 0)">
        <path id="Path_231" data-name="Path 231" d="M37.593,6.248a.639.639,0,0,0,.179.026.621.621,0,0,0,.594-.443l.722-2.4a.621.621,0,0,0-1.19-.357l-.722,2.4A.621.621,0,0,0,37.593,6.248Z" transform="translate(-15.303 -2.238)" fill="#165b6d"/>
        <path id="Path_232" data-name="Path 232" d="M44.258,7.993a.621.621,0,0,0,.842-.248L46.3,5.53a.621.621,0,1,0-1.092-.593l-1.2,2.214a.621.621,0,0,0,.25.842Z" transform="translate(-17.874 -2.99)" fill="#165b6d"/>
        <path id="Path_233" data-name="Path 233" d="M51.564,11.376a.621.621,0,0,0,.475-.22l1.633-1.939a.621.621,0,1,0-.95-.8L51.09,10.355a.621.621,0,0,0,.475,1.021Z" transform="translate(-20.53 -4.348)" fill="#165b6d"/>
        <path id="Path_234" data-name="Path 234" d="M57.664,16.542a.621.621,0,0,0,.4-.145l1.925-1.615a.621.621,0,1,0-.8-.952l-1.925,1.615a.621.621,0,0,0,.4,1.1Z" transform="translate(-22.842 -6.428)" fill="#165b6d"/>
        <path id="Path_235" data-name="Path 235" d="M10.207,11.156a.621.621,0,1,0,.95-.8L9.523,8.416a.621.621,0,1,0-.95.8Z" transform="translate(-4.42 -4.348)" fill="#165b6d"/>
        <path id="Path_236" data-name="Path 236" d="M17.408,7.743A.621.621,0,1,0,18.5,7.15L17.3,4.935a.621.621,0,1,0-1.092.593Z" transform="translate(-7.339 -2.989)" fill="#165b6d"/>
        <path id="Path_237" data-name="Path 237" d="M4.069,16.524a.621.621,0,1,0,.759-.983L2.991,14.122a.621.621,0,1,0-.759.983Z" transform="translate(-1.975 -6.54)" fill="#165b6d"/>
        <path id="Path_238" data-name="Path 238" d="M24.436,5.831a.621.621,0,0,0,.594.443.639.639,0,0,0,.179-.026.621.621,0,0,0,.417-.773l-.722-2.4a.621.621,0,0,0-1.19.357Z" transform="translate(-10.202 -2.238)" fill="#165b6d"/>
        <path id="Path_239" data-name="Path 239" d="M31.621,5.726a.621.621,0,0,0,.621-.621V2.621a.621.621,0,1,0-1.242,0V5.105A.621.621,0,0,0,31.621,5.726Z" transform="translate(-12.973 -2)" fill="#165b6d"/>
        <path id="Path_240" data-name="Path 240" d="M12.19,31.74a23.834,23.834,0,0,1-8.778-6.871,25.055,25.055,0,0,1,4.053-4.021A.621.621,0,0,0,6.7,19.87a26.458,26.458,0,0,0-4.568,4.619.621.621,0,0,0,0,.76,25.179,25.179,0,0,0,9.554,7.626.621.621,0,0,0,.506-1.135Z" transform="translate(-1.985 -8.721)" fill="#165b6d"/>
        <path id="Path_241" data-name="Path 241" d="M43.007,22.317a.621.621,0,0,0,0-.76A23.523,23.523,0,0,0,24.5,12a22.281,22.281,0,0,0-12,3.564.621.621,0,0,0,.668,1.047,21.619,21.619,0,0,1,5.057-2.37,9.914,9.914,0,0,0,.062,15.44v.951a1.863,1.863,0,1,0,0,3.726H30.715a.621.621,0,1,1,0,1.242H18.294a.621.621,0,1,0,0,1.242,6.211,6.211,0,0,0,12.422,0,1.855,1.855,0,0,0,1.379-3.105,1.855,1.855,0,0,0-1.379-3.105v-.951a9.849,9.849,0,0,0,3.726-7.744,9.993,9.993,0,0,0-.232-2.122A.621.621,0,1,0,33,20.08a8.734,8.734,0,0,1,.2,1.857,8.626,8.626,0,0,1-3.478,6.944.621.621,0,0,0-.248.5v1.254H26.989v-4.4A4.948,4.948,0,0,0,29.156,20.2a.621.621,0,0,0-.523-.4.615.615,0,0,0-.589.294,1.237,1.237,0,1,1-1.7-1.7.621.621,0,0,0-.107-1.112,4.964,4.964,0,0,0-4.218,8.95v4.4H19.536V29.377a.621.621,0,0,0-.248-.5A8.69,8.69,0,1,1,32.206,17.9a.621.621,0,0,0,1.1-.578A9.975,9.975,0,0,0,30.8,14.245a23.3,23.3,0,0,1,10.927,7.692,23.834,23.834,0,0,1-8.778,6.871.621.621,0,0,0,.506,1.135,25.179,25.179,0,0,0,9.555-7.626ZM24.5,41.812a4.974,4.974,0,0,1-4.969-4.969h9.937A4.974,4.974,0,0,1,24.5,41.812ZM31.336,32.5a.621.621,0,0,1-.621.621H18.294a.621.621,0,0,1,0-1.242H30.715A.621.621,0,0,1,31.336,32.5Zm-8.428-7.2a3.726,3.726,0,0,1,1.6-7.089c.109,0,.217,0,.325.014a2.484,2.484,0,0,0,3.387,3.387c.01.107.015.216.015.325A3.743,3.743,0,0,1,26.1,25.3a.621.621,0,0,0-.354.559v4.774H23.262V25.861a.621.621,0,0,0-.354-.561Z" transform="translate(-5.857 -5.789)" fill="#165b6d"/>
        <path id="Path_242" data-name="Path 242" d="M52.039,41.473a.622.622,0,0,0-.95.8l1.633,1.94a.621.621,0,1,0,.95-.8Z" transform="translate(-20.53 -16.873)" fill="#165b6d"/>
        <path id="Path_243" data-name="Path 243" d="M58.053,36.423a.621.621,0,1,0-.8.951l1.925,1.615a.621.621,0,0,0,.8-.951Z" transform="translate(-22.831 -14.983)" fill="#165b6d"/>
        <path id="Path_244" data-name="Path 244" d="M10.206,41.474,8.574,43.413a.621.621,0,1,0,.95.8l1.633-1.937a.621.621,0,1,0-.95-.8Z" transform="translate(-4.42 -16.875)" fill="#165b6d"/>
        <path id="Path_245" data-name="Path 245" d="M4.069,36.407,2.232,37.826a.621.621,0,1,0,.759.983L4.828,37.39a.621.621,0,1,0-.759-.983Z" transform="translate(-1.975 -14.984)" fill="#165b6d"/>
      </g>
    </g>
  </g>
</svg>
